<mxfile host="app.diagrams.net" modified="2021-04-14T11:36:10.388Z" agent="5.0 (Windows NT 10.0; Win64; x64) AppleWebKit/537.36 (KHTML, like Gecko) Chrome/89.0.4389.114 Safari/537.36" etag="RtyZNeMEQ5J_q8oPJfMq" version="14.5.8" type="github">
  <diagram id="Ore4MgicJ0b4Vx4Ows8z" name="Page-1">
    <mxGraphModel dx="1422" dy="762" grid="1" gridSize="10" guides="1" tooltips="1" connect="1" arrows="1" fold="1" page="1" pageScale="1" pageWidth="827" pageHeight="1169" math="0" shadow="0">
      <root>
        <mxCell id="0" />
        <mxCell id="1" parent="0" />
        <mxCell id="LphKP8YRUhctz4YZiUcn-12" value="" style="edgeStyle=orthogonalEdgeStyle;rounded=0;orthogonalLoop=1;jettySize=auto;html=1;" edge="1" parent="1" source="LphKP8YRUhctz4YZiUcn-1" target="LphKP8YRUhctz4YZiUcn-2">
          <mxGeometry relative="1" as="geometry" />
        </mxCell>
        <mxCell id="LphKP8YRUhctz4YZiUcn-1" value="start" style="ellipse;whiteSpace=wrap;html=1;" vertex="1" parent="1">
          <mxGeometry x="330" y="40" width="90" height="60" as="geometry" />
        </mxCell>
        <mxCell id="LphKP8YRUhctz4YZiUcn-13" value="" style="edgeStyle=orthogonalEdgeStyle;rounded=0;orthogonalLoop=1;jettySize=auto;html=1;" edge="1" parent="1" source="LphKP8YRUhctz4YZiUcn-2" target="LphKP8YRUhctz4YZiUcn-3">
          <mxGeometry relative="1" as="geometry" />
        </mxCell>
        <mxCell id="LphKP8YRUhctz4YZiUcn-2" value="校验openId" style="rhombus;whiteSpace=wrap;html=1;" vertex="1" parent="1">
          <mxGeometry x="327.5" y="140" width="95" height="80" as="geometry" />
        </mxCell>
        <mxCell id="LphKP8YRUhctz4YZiUcn-14" value="" style="edgeStyle=orthogonalEdgeStyle;rounded=0;orthogonalLoop=1;jettySize=auto;html=1;" edge="1" parent="1" source="LphKP8YRUhctz4YZiUcn-3" target="LphKP8YRUhctz4YZiUcn-4">
          <mxGeometry relative="1" as="geometry" />
        </mxCell>
        <mxCell id="LphKP8YRUhctz4YZiUcn-3" value="缓存获取数据code" style="rounded=0;whiteSpace=wrap;html=1;" vertex="1" parent="1">
          <mxGeometry x="315" y="270" width="120" height="40" as="geometry" />
        </mxCell>
        <mxCell id="LphKP8YRUhctz4YZiUcn-15" value="" style="edgeStyle=orthogonalEdgeStyle;rounded=0;orthogonalLoop=1;jettySize=auto;html=1;" edge="1" parent="1" source="LphKP8YRUhctz4YZiUcn-4" target="LphKP8YRUhctz4YZiUcn-5">
          <mxGeometry relative="1" as="geometry" />
        </mxCell>
        <mxCell id="LphKP8YRUhctz4YZiUcn-17" value="" style="edgeStyle=orthogonalEdgeStyle;rounded=0;orthogonalLoop=1;jettySize=auto;html=1;" edge="1" parent="1" source="LphKP8YRUhctz4YZiUcn-4" target="LphKP8YRUhctz4YZiUcn-16">
          <mxGeometry relative="1" as="geometry" />
        </mxCell>
        <mxCell id="LphKP8YRUhctz4YZiUcn-4" value="非空判断code" style="rhombus;whiteSpace=wrap;html=1;" vertex="1" parent="1">
          <mxGeometry x="318.25" y="360" width="113.5" height="80" as="geometry" />
        </mxCell>
        <mxCell id="LphKP8YRUhctz4YZiUcn-20" value="" style="edgeStyle=orthogonalEdgeStyle;rounded=0;orthogonalLoop=1;jettySize=auto;html=1;" edge="1" parent="1" source="LphKP8YRUhctz4YZiUcn-5" target="LphKP8YRUhctz4YZiUcn-7">
          <mxGeometry relative="1" as="geometry" />
        </mxCell>
        <mxCell id="LphKP8YRUhctz4YZiUcn-23" value="" style="edgeStyle=orthogonalEdgeStyle;rounded=0;orthogonalLoop=1;jettySize=auto;html=1;" edge="1" parent="1" source="LphKP8YRUhctz4YZiUcn-5" target="LphKP8YRUhctz4YZiUcn-22">
          <mxGeometry relative="1" as="geometry" />
        </mxCell>
        <mxCell id="LphKP8YRUhctz4YZiUcn-5" value="校验code正确性" style="rhombus;whiteSpace=wrap;html=1;" vertex="1" parent="1">
          <mxGeometry x="325" y="504.5" width="100" height="80" as="geometry" />
        </mxCell>
        <mxCell id="LphKP8YRUhctz4YZiUcn-25" value="" style="edgeStyle=orthogonalEdgeStyle;rounded=0;orthogonalLoop=1;jettySize=auto;html=1;" edge="1" parent="1" source="LphKP8YRUhctz4YZiUcn-7" target="LphKP8YRUhctz4YZiUcn-9">
          <mxGeometry relative="1" as="geometry" />
        </mxCell>
        <mxCell id="LphKP8YRUhctz4YZiUcn-29" value="" style="edgeStyle=orthogonalEdgeStyle;rounded=0;orthogonalLoop=1;jettySize=auto;html=1;" edge="1" parent="1" source="LphKP8YRUhctz4YZiUcn-7" target="LphKP8YRUhctz4YZiUcn-28">
          <mxGeometry relative="1" as="geometry" />
        </mxCell>
        <mxCell id="LphKP8YRUhctz4YZiUcn-7" value="通过memberId和渠道查询会员" style="rhombus;whiteSpace=wrap;html=1;" vertex="1" parent="1">
          <mxGeometry x="319" y="640" width="113" height="80" as="geometry" />
        </mxCell>
        <mxCell id="LphKP8YRUhctz4YZiUcn-26" value="" style="edgeStyle=orthogonalEdgeStyle;rounded=0;orthogonalLoop=1;jettySize=auto;html=1;" edge="1" parent="1" source="LphKP8YRUhctz4YZiUcn-9" target="LphKP8YRUhctz4YZiUcn-10">
          <mxGeometry relative="1" as="geometry" />
        </mxCell>
        <mxCell id="LphKP8YRUhctz4YZiUcn-9" value="保存星妈优选会员信息" style="rounded=0;whiteSpace=wrap;html=1;" vertex="1" parent="1">
          <mxGeometry x="313" y="800" width="125" height="50" as="geometry" />
        </mxCell>
        <mxCell id="LphKP8YRUhctz4YZiUcn-31" value="" style="edgeStyle=orthogonalEdgeStyle;rounded=0;orthogonalLoop=1;jettySize=auto;html=1;" edge="1" parent="1" source="LphKP8YRUhctz4YZiUcn-10" target="LphKP8YRUhctz4YZiUcn-11">
          <mxGeometry relative="1" as="geometry" />
        </mxCell>
        <mxCell id="LphKP8YRUhctz4YZiUcn-10" value="推送给crm会员数据" style="rounded=0;whiteSpace=wrap;html=1;" vertex="1" parent="1">
          <mxGeometry x="315" y="910" width="121" height="60" as="geometry" />
        </mxCell>
        <mxCell id="LphKP8YRUhctz4YZiUcn-11" value="end" style="ellipse;whiteSpace=wrap;html=1;" vertex="1" parent="1">
          <mxGeometry x="330" y="1020" width="90" height="50" as="geometry" />
        </mxCell>
        <mxCell id="LphKP8YRUhctz4YZiUcn-16" value="return 错误信息" style="rounded=0;whiteSpace=wrap;html=1;" vertex="1" parent="1">
          <mxGeometry x="520" y="380" width="120" height="40" as="geometry" />
        </mxCell>
        <mxCell id="LphKP8YRUhctz4YZiUcn-18" value="No" style="text;html=1;align=center;verticalAlign=middle;resizable=0;points=[];autosize=1;strokeColor=none;" vertex="1" parent="1">
          <mxGeometry x="475" y="380" width="30" height="20" as="geometry" />
        </mxCell>
        <mxCell id="LphKP8YRUhctz4YZiUcn-19" value="Yes" style="text;html=1;align=center;verticalAlign=middle;resizable=0;points=[];autosize=1;strokeColor=none;" vertex="1" parent="1">
          <mxGeometry x="350" y="460" width="40" height="20" as="geometry" />
        </mxCell>
        <mxCell id="LphKP8YRUhctz4YZiUcn-21" value="Yes" style="text;html=1;align=center;verticalAlign=middle;resizable=0;points=[];autosize=1;strokeColor=none;" vertex="1" parent="1">
          <mxGeometry x="340" y="590" width="40" height="20" as="geometry" />
        </mxCell>
        <mxCell id="LphKP8YRUhctz4YZiUcn-22" value="return 错误信息" style="rounded=0;whiteSpace=wrap;html=1;" vertex="1" parent="1">
          <mxGeometry x="520" y="521.75" width="115" height="45.5" as="geometry" />
        </mxCell>
        <mxCell id="LphKP8YRUhctz4YZiUcn-24" value="No" style="text;html=1;align=center;verticalAlign=middle;resizable=0;points=[];autosize=1;strokeColor=none;" vertex="1" parent="1">
          <mxGeometry x="455" y="520" width="30" height="20" as="geometry" />
        </mxCell>
        <mxCell id="LphKP8YRUhctz4YZiUcn-27" value="No" style="text;html=1;align=center;verticalAlign=middle;resizable=0;points=[];autosize=1;strokeColor=none;" vertex="1" parent="1">
          <mxGeometry x="335" y="750" width="30" height="20" as="geometry" />
        </mxCell>
        <mxCell id="LphKP8YRUhctz4YZiUcn-28" value="return 会员存在信息" style="rounded=0;whiteSpace=wrap;html=1;" vertex="1" parent="1">
          <mxGeometry x="515" y="660" width="120" height="40" as="geometry" />
        </mxCell>
        <mxCell id="LphKP8YRUhctz4YZiUcn-30" value="Yes" style="text;html=1;align=center;verticalAlign=middle;resizable=0;points=[];autosize=1;strokeColor=none;" vertex="1" parent="1">
          <mxGeometry x="460" y="660" width="40" height="20" as="geometry" />
        </mxCell>
      </root>
    </mxGraphModel>
  </diagram>
</mxfile>
